<svg xmlns="http://www.w3.org/2000/svg" viewBox="0 0 76 75.77"><defs><style>.cls-1{fill:#fff;}.cls-2{fill:none;stroke:#22ab38;stroke-miterlimit:10;}.cls-3{fill:#22ab38;}</style></defs><title>ic_line</title><g id="圖層_2" data-name="圖層 2"><g id="圖層_1-2" data-name="圖層 1"><path class="cls-1" d="M1.77,47.9A43.84,43.84,0,0,1,.56,35.76,38.24,38.24,0,0,1,4,22.09a3.26,3.26,0,0,0,.5-1.34,74.65,74.65,0,0,1,4.66-6.87,2,2,0,0,0,.71-.82l2.89-2.93a.64.64,0,0,0,.46-.41l3.2-2.51A40.75,40.75,0,0,1,28,1.84,37.52,37.52,0,0,1,57.54,6a3.09,3.09,0,0,0,.32.14A40,40,0,0,1,69,16.72a39.86,39.86,0,0,1,5.53,12.74,37.56,37.56,0,0,1-.87,20c-.19.61-.37,1.23-.55,1.84l-1.39,3.13A46.42,46.42,0,0,1,65.81,63a37.7,37.7,0,0,1-10.64,8.13c-.35.18-.76.27-1,.64A31.1,31.1,0,0,0,51,73.06a63,63,0,0,1-7.2,1.77,38.77,38.77,0,0,1-17-1.2l-3.16-1.09a66.18,66.18,0,0,1-7.27-3.94h0L13.21,66,9,61.73A57.88,57.88,0,0,1,4.2,54.24c-.39-.9-.79-1.8-1.19-2.7,0-.25,0-.53-.3-.69l-.18-.55,0-.1-.07-.09L1.77,47.9"/><path class="cls-2" d="M1.77,47.9A43.84,43.84,0,0,1,.56,35.76,38.24,38.24,0,0,1,4,22.09a3.26,3.26,0,0,0,.5-1.34,74.65,74.65,0,0,1,4.66-6.87,2,2,0,0,0,.71-.82l2.89-2.93a.64.64,0,0,0,.46-.41l3.2-2.51A40.75,40.75,0,0,1,28,1.84,37.52,37.52,0,0,1,57.54,6a3.09,3.09,0,0,0,.32.14A40,40,0,0,1,69,16.72a39.86,39.86,0,0,1,5.53,12.74,37.56,37.56,0,0,1-.87,20c-.19.61-.37,1.23-.55,1.84l-1.39,3.13A46.42,46.42,0,0,1,65.81,63a37.7,37.7,0,0,1-10.64,8.13c-.35.18-.76.27-1,.64A31.1,31.1,0,0,0,51,73.06a63,63,0,0,1-7.2,1.77,38.77,38.77,0,0,1-17-1.2l-3.16-1.09a66.18,66.18,0,0,1-7.27-3.94h0L13.21,66,9,61.73A57.88,57.88,0,0,1,4.2,54.24c-.39-.9-.79-1.8-1.19-2.7,0-.25,0-.53-.3-.69l-.18-.55,0-.1-.07-.09Z"/><path class="cls-3" d="M67.56,38a7.64,7.64,0,0,0-6.39-7.74,8,8,0,0,0-8.72,4.54,7.36,7.36,0,0,0,2.8,9.2,7.94,7.94,0,0,0,7.22.88,1,1,0,0,0,.84-1A.82.82,0,0,0,62.7,43a2.34,2.34,0,0,0-1.3.16,5.81,5.81,0,0,1-7.49-4.91A5.29,5.29,0,0,1,56.65,33a5.89,5.89,0,0,1,8.92,5.78c0,.55-.33.93-.93.91a.85.85,0,0,1-.86-.85c-.05-.4,0-.81-.05-1.22a4,4,0,1,0-3.88,4c.69,0,1.39-.11,1.42-1s-.61-1-1.34-1a1.8,1.8,0,0,1-.61,0,2,2,0,0,1-1.61-2,2,2,0,0,1,2-1.81,1.86,1.86,0,0,1,2,1.62c.08.44,0,.89.06,1.34a2.92,2.92,0,0,0,3,2.84c1.87,0,2.82-1.26,2.81-3.62"/><path class="cls-3" d="M40.17,37.79h0c0,1.94,0,3.89,0,5.84a1.59,1.59,0,0,0,1.7,1.79c2,0,4.06,0,6.09,0A1.46,1.46,0,0,0,49.59,44c0-1-.69-1.53-1.65-1.6s-1.7,0-2.55,0c-2.06,0-2,0-2-2.1,0-.67.18-1,.89-.91,1.14,0,2.28,0,3.41,0s1.76-.36,1.9-1.43c.12-.86-.61-1.52-1.76-1.57s-2.35-.06-3.53,0c-.7,0-1-.25-.9-.92a5.78,5.78,0,0,0,0-1.1c-.1-.77.25-1,1-.94,1.09,0,2.19,0,3.29,0s2-.69,1.94-1.58-.71-1.49-2-1.5c-1.79,0-3.58,0-5.36,0-1.59,0-2.08.51-2.1,2.14s0,3.57,0,5.36"/><path class="cls-3" d="M34.63,38.86l-.3.09c-.23-.26-.49-.51-.71-.79-1.67-2.2-3.34-4.39-5-6.59C28,30.8,27.46,30,26.33,30.39s-1.07,1.38-1.06,2.32c0,3.61,0,7.23,0,10.84,0,1.24.59,1.92,1.59,1.86s1.53-.74,1.52-1.81c0-1.9,0-3.81,0-5.72,0-.34-.19-.83.24-1s.56.37.77.64c1.75,2.29,3.51,4.57,5.24,6.87.53.7,1.12,1.2,2.05.91a1.65,1.65,0,0,0,1.12-1.92c0-1,0-2.11,0-3.16,0-2.77,0-5.53,0-8.29a1.58,1.58,0,1,0-3.15-.13,11.94,11.94,0,0,0,0,1.34v5.69"/><path class="cls-3" d="M11.56,36.71c0-1.51,0-3,0-4.51,0-1.27-.54-1.92-1.54-1.87S8.46,31,8.47,32.1c0,3.86,0,7.72,0,11.57a1.56,1.56,0,0,0,1.72,1.76c2,0,3.9,0,5.85,0,1.19,0,1.79-.57,1.78-1.54s-.65-1.51-1.79-1.54a30.46,30.46,0,0,0-3.17,0c-1,.07-1.38-.22-1.32-1.27.09-1.46,0-2.92,0-4.38"/><path class="cls-3" d="M22.7,37.91c0-1.91,0-3.81,0-5.72,0-1.18-.61-1.91-1.56-1.9s-1.55.67-1.55,1.8c0,3.86,0,7.71,0,11.57,0,1.14.62,1.78,1.57,1.77s1.53-.66,1.54-1.79c0-1.91,0-3.82,0-5.73"/></g></g></svg>