<?xml version="1.0" encoding="utf-8"?>
<!-- Generator: Adobe Illustrator 23.0.5, SVG Export Plug-In . SVG Version: 6.00 Build 0)  -->
<svg version="1.1" id="圖層_1" xmlns="http://www.w3.org/2000/svg" xmlns:xlink="http://www.w3.org/1999/xlink" x="0px" y="0px"
	 viewBox="0 0 16 16" style="enable-background:new 0 0 16 16;" xml:space="preserve">
<style type="text/css">
	.st0{fill:#FFFFFF;stroke:#153E8B;stroke-width:0.1;stroke-miterlimit:10;}
	.st1{fill:#153E8B;}
	.st2{fill:#D9BB28;}
	.st3{fill:#FFFFFF;}
	.st4{fill:#9E3424;}
</style>
<ellipse class="st0" cx="7.7" cy="2.3" rx="1.9" ry="1.9"/>
<g>
	<path class="st1" d="M6.5,3.1c0-0.1,0-0.2,0.1-0.2c0-0.1,0-0.1,0-0.1C6.2,2.5,6,2.1,6.3,1.8c0.1-0.2,0.3-0.4,0.7-0.4
		C7,1.4,7,1.4,7,1.3c0.1-0.3,0.2-0.4,0.5-0.5C7.9,0.8,8.2,1,8.3,1.4c0,0.1,0,0.1,0.1,0.1c0.3,0,0.5,0.1,0.6,0.3C9.2,2,9.2,2.3,9,2.5
		c0,0.1-0.1,0.1-0.2,0.2c-0.1,0-0.1,0.1,0,0.2c0.2,0.3,0,0.6-0.2,0.8C8.4,3.8,8,3.8,7.8,3.6c-0.1,0-0.1-0.1-0.1,0
		C7.4,3.8,7.2,3.8,6.9,3.7C6.6,3.6,6.5,3.4,6.5,3.1z M8.2,3.7c0.1,0,0.1,0,0.2,0c0.4-0.1,0.5-0.5,0.4-0.8c0-0.1,0-0.1,0-0.2
		c0.3-0.2,0.4-0.5,0.3-0.8C9,1.6,8.7,1.5,8.4,1.5c-0.1,0-0.1,0-0.1-0.1c0,0,0-0.1,0-0.1C8.2,1.1,7.9,0.9,7.7,0.9
		C7.4,0.9,7.2,1,7.1,1.2C7,1.4,7,1.5,6.8,1.5c-0.3,0-0.6,0.3-0.6,0.7c0,0.2,0.1,0.4,0.3,0.5c0.1,0,0.1,0.1,0.1,0.2
		c-0.1,0.3,0,0.6,0.2,0.7c0.3,0.1,0.6,0.2,0.8-0.1c0.1-0.1,0.1-0.1,0.2,0C7.9,3.6,8,3.7,8.2,3.7z"/>
	<path class="st1" d="M7.5,2.7C7.4,2.8,7.2,3,7.2,3.2c0,0.1,0,0.1-0.1,0.1C7,3.3,7,3.3,7,3.2c0-0.1,0-0.1,0.1-0.2
		c0.2,0,0.2-0.2,0.3-0.3c0-0.1,0.1-0.1,0.1-0.2c-0.1,0-0.2,0.1-0.2,0.2c0,0.1-0.1,0.1-0.1,0.1C7,2.8,7,2.7,7,2.7
		c0-0.1,0.1-0.1,0.1-0.1c0.1,0,0.1,0,0.2-0.1c-0.1,0-0.2,0-0.2,0c-0.1,0-0.1,0-0.2,0c0,0,0-0.1,0-0.1c0-0.1,0.1-0.1,0.2,0
		c0.1,0,0.2,0,0.2,0C7.1,2.3,7,2.1,6.7,2.2c-0.1,0-0.1,0-0.2-0.1c0-0.1,0-0.1,0.1-0.2c0.1,0,0.1,0,0.2,0C6.8,2,6.9,2.1,7,2.1
		c0.1,0,0.3,0.1,0.4,0.1C7.3,2.1,7.3,2,7.2,2C7.1,2,7.1,2,7.1,1.9c0-0.1,0-0.1,0.1-0.1c0.1,0,0.1,0,0.1,0.1C7.3,2,7.4,2,7.5,2.1
		c0-0.1-0.1-0.2-0.1-0.2c0,0-0.1-0.1-0.1-0.1c0,0,0.1-0.1,0.1-0.1c0.1,0,0.1,0.1,0.1,0.1c0,0.1,0,0.2,0.1,0.2c0-0.2,0.1-0.4-0.1-0.6
		c0-0.1,0-0.1,0-0.2c0.1,0,0.1,0,0.2,0c0.1,0,0.1,0.1,0.1,0.2c-0.1,0.2,0,0.4,0,0.6C7.8,2,7.8,1.9,7.8,1.8c0-0.1,0-0.1,0.1-0.1
		c0.1,0,0.1,0,0.1,0.1c0,0.1,0,0.1,0,0.1C7.9,1.9,7.9,2,7.9,2.1C7.9,2.1,8,2,8,1.9c0-0.1,0.1-0.1,0.1-0.1c0.1,0,0.1,0,0.1,0.1
		c0,0.1,0,0.1-0.1,0.1C8.1,2.1,8,2.1,8,2.2c0,0,0.1,0,0.1,0c0.1,0,0.2-0.1,0.3-0.1c0.1,0,0.1,0,0.1-0.1C8.5,2,8.6,1.9,8.7,2
		c0.1,0,0.1,0.1,0.1,0.2c0,0.1-0.1,0.1-0.2,0.1c0,0-0.1,0-0.1,0C8.3,2.2,8.2,2.3,8,2.3c0.1,0,0.2,0.1,0.2,0c0.1,0,0.1,0,0.2,0.1
		c0,0,0,0.1,0,0.1c0,0-0.1,0-0.1,0C8.2,2.5,8.1,2.5,8,2.5c0.1,0.1,0.1,0.1,0.2,0.1c0,0,0.1,0,0.1,0c0,0,0.1,0.1,0,0.1
		c-0.1,0-0.1,0-0.2,0C8.1,2.7,8,2.6,7.9,2.6C8,2.7,8.1,2.8,8.1,2.9C8.2,2.9,8.2,3,8.3,3.1c0.1,0,0.1,0.1,0.1,0.1
		c0,0.1-0.1,0.1-0.1,0.1c-0.1,0-0.1,0-0.1-0.1C8.2,3.1,8.1,3,8,2.9C8,2.8,7.9,2.8,7.8,2.6c0,0.1,0,0.2,0.1,0.2c0,0,0.1,0.1,0,0.2
		c0,0-0.1,0.1-0.1,0C7.7,3.1,7.7,3,7.7,2.9c0-0.1,0-0.2,0-0.2c0,0.1-0.1,0.1,0,0.2c0,0.1,0,0.1,0,0.1c0,0-0.1,0-0.1,0
		c0,0,0-0.1,0-0.1C7.5,2.9,7.5,2.8,7.5,2.7z"/>
</g>
<path class="st2" d="M7.4,12C7.4,12,7.4,12.1,7.4,12c-0.1,0.2-0.1,0.2-0.2,0.3c0,0-0.1,0-0.1,0c-0.1,0-0.1,0-0.2-0.1c0,0-0.1,0,0,0
	C7.1,12.1,7.2,12,7.4,12C7.4,11.9,7.4,11.9,7.4,12z"/>
<path class="st2" d="M9.2,12.3c-0.1,0-0.2,0-0.3,0.1c0,0,0,0-0.1,0c-0.1-0.1-0.1-0.2-0.2-0.3c0,0,0,0,0,0c0,0,0,0,0,0c0,0,0,0,0.1,0
	c0.1,0,0.2,0.1,0.3,0.2C9,12.2,9.1,12.2,9.2,12.3z"/>
<g>
	<path class="st2" d="M6.9,8.3c0-0.1,0.1-0.3,0.2-0.6c0.2-0.3,0.3-0.7,0.3-1c0-0.2,0-0.3-0.1-0.5c0-0.1-0.1-0.2-0.3-0.1
		c-0.1,0-0.1,0,0,0C7,6,7,5.9,7.2,5.9c0.1,0,0.1-0.1,0.1-0.1c0.1-0.2,0.3-0.2,0.5-0.2c0.3,0,0.6,0.3,0.6,0.6c0,0.2,0,0.4-0.1,0.6
		c-0.1,0.3,0,0.7,0.2,1c0.1,0.2,0.2,0.5,0.3,0.8c0,0.3,0,0.5-0.2,0.8C8.5,9.4,8.4,9.5,8.3,9.5C8.1,9.7,7.8,9.8,7.5,9.6
		C7.3,9.5,7.2,9.4,7,9.2C6.9,8.9,6.9,8.7,6.9,8.3z M8.1,9c0,0,0-0.1,0-0.1c0,0,0-0.1,0-0.1c0,0,0,0,0.1,0.1c0,0,0,0,0.1,0
		c0,0,0,0,0-0.1C8.2,8.7,8.1,8.5,8.1,8.4c0,0,0,0,0,0c0,0,0,0,0,0C8,8.5,8,8.6,8,8.7c0,0.1-0.1,0.1-0.1,0.1c0,0,0,0,0,0.1
		c0,0,0,0,0.1,0c0,0,0,0,0-0.1c0,0,0,0,0-0.1C8,8.8,8,8.9,8.1,9z M7.6,8.7C7.6,8.7,7.6,8.8,7.6,8.7c0,0.1,0.1,0.1,0.1,0.1
		c0,0,0,0,0,0c0,0,0,0,0,0C7.6,8.7,7.6,8.5,7.5,8.4c0,0,0-0.1,0,0c0,0,0,0,0,0.1c0,0.1-0.1,0.3-0.1,0.4c0,0,0,0.1,0,0.1
		c0,0,0,0,0.1,0c0,0,0-0.1,0.1-0.1c0,0.1,0,0.1,0.1,0.2C7.6,8.9,7.5,8.8,7.6,8.7z M7.9,6.1C7.9,6,7.8,6,7.7,6C7.7,6,7.6,6,7.6,6.1
		c0,0.1,0.1,0.1,0.1,0.1C7.8,6.2,7.9,6.2,7.9,6.1z"/>
	<path class="st2" d="M3.6,4.4C3.6,4.4,3.6,4.4,3.6,4.4c0.1,0,0.2,0,0.2,0C4.2,4.7,4.6,4.8,4.9,5c0.3,0.1,0.4,0.3,0.6,0.5
		c0.3,0.3,0.4,0.7,0.6,1C6.2,6.8,6.3,7,6.5,7.2C6.6,7.4,6.8,7.5,7,7.6c0,0,0.1,0,0,0.1c0,0.1-0.1,0.2-0.1,0.2c0,0,0,0.1-0.1,0
		C6.6,7.9,6.4,7.8,6.3,7.6C6,7.4,5.8,7.1,5.7,6.8C5.6,6.5,5.5,6.2,5.3,6C5.2,5.9,5,5.8,4.9,5.7C4.6,5.6,4.4,5.5,4.1,5.4
		C3.9,5.3,3.8,5.1,3.7,4.9C3.7,4.8,3.6,4.6,3.6,4.4C3.6,4.5,3.6,4.5,3.6,4.4z"/>
	<path class="st2" d="M11.7,4.7c0,0.2-0.1,0.4-0.2,0.6c-0.1,0.2-0.2,0.3-0.4,0.3c-0.2,0.1-0.4,0.2-0.6,0.3c-0.2,0.1-0.4,0.3-0.5,0.5
		C10,6.5,9.9,6.6,9.9,6.8C9.8,7,9.6,7.3,9.5,7.5C9.3,7.8,9,7.9,8.8,8c0,0-0.1,0-0.1,0c0-0.1-0.1-0.2-0.1-0.2c0,0,0-0.1,0-0.1
		C8.8,7.6,8.9,7.5,9,7.4C9.2,7.2,9.3,7,9.3,6.8c0.1-0.3,0.2-0.6,0.4-0.9c0.2-0.4,0.5-0.6,0.9-0.8c0.3-0.1,0.6-0.3,0.8-0.4
		C11.5,4.7,11.5,4.7,11.7,4.7C11.7,4.6,11.7,4.6,11.7,4.7z"/>
	<path class="st2" d="M2.7,9.4c0-0.1,0-0.2,0-0.2c0-0.1,0-0.1,0.1-0.1c0.4,0.2,0.9,0.4,1.2,0.7c0.4,0.3,0.7,0.6,1,1
		c0,0,0.1,0.1,0.1,0.1c0,0,0,0,0,0c0,0,0,0-0.1,0c-0.1,0-0.3,0-0.4,0c-0.1,0-0.2,0-0.3,0c-0.1,0-0.1,0-0.1-0.1
		c-0.2-0.2-0.3-0.3-0.5-0.5c-0.2-0.2-0.3-0.3-0.5-0.4C3.2,9.9,3,9.8,2.8,9.7c-0.1,0-0.1-0.1-0.1-0.1C2.7,9.5,2.7,9.4,2.7,9.4
		C2.7,9.4,2.7,9.4,2.7,9.4z"/>
	<path class="st2" d="M1.5,2.7c0.1,0.1,0.2,0.2,0.2,0.3C2,3.2,2.3,3.5,2.6,3.7c0.2,0.2,0.5,0.4,0.8,0.5c0.1,0.1,0.2,0.1,0.2,0.3
		c0,0.2,0.1,0.4,0.2,0.6c0,0.1,0,0.1-0.1,0.1C3.5,5.2,3.3,5.1,3.1,5c-0.4-0.2-0.7-0.5-1-0.9C2.1,4,2,3.9,1.9,3.8
		C1.9,3.7,1.8,3.6,1.7,3.5C1.7,3.3,1.6,3.1,1.5,2.9C1.5,2.8,1.5,2.7,1.5,2.7C1.5,2.7,1.5,2.7,1.5,2.7z"/>
	<path class="st2" d="M10.9,10.9c-0.1,0-0.3,0-0.4,0c0,0,0,0-0.1,0c0,0,0,0,0-0.1c0.1-0.2,0.3-0.4,0.5-0.6c0.3-0.3,0.6-0.6,0.9-0.8
		c0.2-0.1,0.4-0.3,0.6-0.4c0,0,0.1,0,0.1-0.1c0.1,0,0.1,0,0.1,0c0,0.2,0,0.3,0.1,0.5c0,0,0,0.1-0.1,0.1c-0.2,0.1-0.4,0.3-0.6,0.4
		c-0.3,0.2-0.5,0.5-0.8,0.7C11.3,10.9,11.2,11,10.9,10.9C11,10.9,11,10.9,10.9,10.9z"/>
	<path class="st2" d="M13.5,3c0,0.1,0,0.2,0,0.3c0,0.2-0.1,0.4-0.2,0.6c-0.2,0.3-0.4,0.6-0.7,0.9c-0.2,0.1-0.3,0.3-0.5,0.4
		c-0.1,0.1-0.3,0.2-0.5,0.2c-0.1,0-0.1,0-0.1-0.1c0.1-0.2,0.2-0.4,0.2-0.7c0-0.1,0-0.1,0.1-0.1c0.3-0.1,0.5-0.3,0.7-0.5
		c0.2-0.2,0.4-0.4,0.6-0.6C13.3,3.3,13.4,3.1,13.5,3C13.5,3,13.5,3,13.5,3z"/>
	<path class="st2" d="M0.9,5.6c0.1,0.1,0.3,0.1,0.4,0.2c0.3,0.2,0.5,0.4,0.7,0.6c0.3,0.3,0.6,0.6,0.8,1C3,7.8,3.2,8,3.3,8.3
		c0,0.1,0,0.1,0,0.2c0,0.3,0,0.5,0,0.8c0,0,0,0,0,0.1c0,0,0,0-0.1,0c-0.1,0-0.1-0.1-0.2-0.1c0,0,0,0,0-0.1C3,8.6,2.8,8.2,2.6,7.8
		C2.5,7.5,2.3,7.2,2.1,7C1.9,6.7,1.7,6.4,1.4,6.1C1.3,6,1.1,5.9,0.9,5.6C1,5.7,0.9,5.7,0.9,5.6z"/>
	<path class="st2" d="M4,6.1C3.8,6.1,3.5,6,3.3,5.9C3,5.8,2.8,5.6,2.6,5.4C2.5,5.2,2.4,5.1,2.4,4.9c0-0.1,0-0.2,0-0.2
		c0,0,0-0.1,0-0.1c0,0,0,0,0.1,0C2.7,4.8,2.9,5,3.2,5.1c0.2,0.1,0.4,0.2,0.6,0.1c0,0,0.1,0,0.1,0.1C3.9,5.6,4,5.8,4.2,6c0,0,0,0,0,0
		C4.1,6.1,4.1,6.1,4,6.1z"/>
	<path class="st2" d="M7.8,11c-0.2,0-0.4-0.1-0.5-0.2c0,0,0-0.1,0-0.1c0,0,0,0,0,0c0.1-0.3,0.2-0.6,0.3-0.9c0,0,0,0,0.1,0
		c0.1,0.1,0.3,0.1,0.5,0c0,0,0.1,0,0.1,0c0.1,0.1,0.1,0.3,0.2,0.4c0.1,0.2,0.1,0.3,0.2,0.5c0,0.1,0,0.1,0,0.1
		C8.2,10.9,8.1,11,7.8,11z"/>
	<path class="st2" d="M14.2,5.8C14.1,5.9,14,6,13.9,6.1c-0.3,0.3-0.6,0.7-0.8,1.1c-0.2,0.4-0.4,0.8-0.5,1.2
		c-0.1,0.2-0.1,0.5-0.2,0.7c0,0.1-0.1,0.1-0.2,0.2c0,0,0,0,0,0c0-0.2,0-0.3,0-0.5c0-0.1,0-0.2,0-0.3c0-0.1,0-0.1,0-0.2
		c0.2-0.4,0.4-0.9,0.7-1.3c0.1-0.2,0.3-0.4,0.5-0.6c0.2-0.2,0.4-0.4,0.7-0.5C14.1,5.9,14.1,5.9,14.2,5.8C14.2,5.8,14.2,5.8,14.2,5.8
		z"/>
	<path class="st2" d="M12.8,5c0,0.3-0.1,0.5-0.2,0.7c-0.3,0.3-0.7,0.5-1.1,0.6c-0.1,0-0.1,0-0.2,0c0,0,0,0,0,0
		c0.1-0.2,0.2-0.4,0.2-0.7c0,0,0-0.1,0.1-0.1c0.4,0,0.7-0.2,1-0.4c0.1-0.1,0.2-0.2,0.3-0.2c0,0,0,0,0,0c0,0,0,0,0,0
		C12.8,4.9,12.8,4.9,12.8,5z"/>
	<path class="st2" d="M4.1,11.1c0.1,0,0.2,0,0.2-0.1c0.5-0.1,0.9,0,1.4,0.1c0.1,0,0.3,0.1,0.4,0.1c0.2,0,0.3,0.1,0.4,0.2
		c0.1,0.1,0.3,0.3,0.5,0.3c0,0,0,0,0,0c0,0,0,0,0,0c0,0,0,0,0,0c-0.1,0-0.3,0-0.4,0c-0.4,0-0.7-0.2-1-0.4c-0.4-0.3-0.8-0.4-1.3-0.4
		C4.2,11.2,4.2,11.2,4.1,11.1C4.1,11.1,4.1,11.1,4.1,11.1z"/>
	<path class="st2" d="M11.5,11.1c-0.1,0-0.2,0-0.3,0c-0.3,0-0.5,0.1-0.8,0.2c-0.1,0.1-0.3,0.2-0.4,0.3C9.7,11.9,9.4,12,9,12
		c-0.1,0-0.1,0-0.2,0c0,0,0,0,0,0c0,0,0,0,0,0c0.1,0,0.2-0.1,0.3-0.1c0.1-0.1,0.1-0.1,0.2-0.2c0.1-0.1,0.2-0.2,0.4-0.3
		c0.3-0.1,0.6-0.2,0.9-0.3c0.2,0,0.5,0,0.7,0C11.4,11,11.5,11,11.5,11.1z"/>
	<path class="st2" d="M4.3,6.7c-0.4,0-0.7-0.1-1-0.3C3,6.3,2.9,6.1,2.8,5.8c0,0,0-0.1,0-0.1c0,0,0,0,0.1,0C3.1,5.9,3.3,6,3.5,6
		c0.1,0,0.2,0.1,0.3,0.1c0.1,0,0.2,0,0.4,0c0.1,0,0.2,0.1,0.2,0.2c0,0.1,0,0.3,0.1,0.4c0,0,0,0.1,0,0.1C4.4,6.8,4.3,6.7,4.3,6.7z"/>
	<path class="st2" d="M4.5,9.1c0,0.1,0.1,0.2,0.1,0.3C4.7,9.7,4.8,9.9,5,10.2c0.3,0.3,0.6,0.6,1,0.7C6,10.9,6.1,11,6.1,11
		c0,0.1,0.1,0.1,0.1,0.2c0,0,0,0,0,0c0,0,0,0-0.1,0c-0.2,0-0.3-0.1-0.5-0.1c-0.1,0-0.2,0-0.2-0.1c-0.1,0-0.1,0-0.1-0.1
		c-0.2-0.3-0.4-0.6-0.7-0.8c-0.1-0.1-0.1-0.2-0.1-0.3C4.4,9.6,4.4,9.4,4.5,9.1C4.4,9.2,4.4,9.2,4.5,9.1C4.4,9.1,4.5,9.1,4.5,9.1z"/>
	<path class="st2" d="M3.6,7.8c0,0,0,0.1,0,0.1c0,0.5,0.2,0.9,0.4,1.3c0.1,0.1,0.2,0.2,0.2,0.3c0,0,0.1,0.1,0.1,0.2
		c0,0.1,0,0.1,0,0.2c0,0,0,0,0,0.1c0,0,0,0-0.1,0C4.2,9.8,4.1,9.8,4,9.7C3.9,9.6,3.7,9.5,3.6,9.4c0,0-0.1-0.1-0.1-0.1
		C3.4,9,3.4,8.8,3.4,8.6c0-0.2,0.1-0.4,0.1-0.6C3.6,7.9,3.6,7.9,3.6,7.8z"/>
	<path class="st2" d="M3.5,6.7c0.1,0,0.1,0,0.2,0.1C4,6.8,4.2,6.8,4.5,6.8c0.2,0,0.3,0.1,0.4,0.3c0,0.1,0,0.2,0.1,0.3
		c0,0,0,0.1,0,0.1c-0.3,0-0.5,0-0.8-0.1C3.8,7.3,3.6,7.1,3.5,6.8C3.5,6.8,3.4,6.7,3.5,6.7C3.5,6.7,3.5,6.7,3.5,6.7z"/>
	<path class="st2" d="M12.4,5.9c0,0.2-0.1,0.4-0.2,0.6c-0.2,0.3-0.5,0.4-0.9,0.4c-0.1,0-0.2,0-0.4,0c-0.1,0-0.1,0,0-0.1
		C11,6.7,11,6.5,11,6.4c0-0.1,0.1-0.2,0.2-0.2c0.2,0,0.4,0,0.5-0.1C12,6.1,12.2,6,12.4,5.9C12.4,5.9,12.4,5.9,12.4,5.9z"/>
	<path class="st2" d="M11.1,9.4c0,0.1,0,0.2,0,0.3c0,0.2-0.1,0.4-0.3,0.6c-0.2,0.2-0.4,0.4-0.5,0.7c0,0-0.1,0.1-0.1,0.1
		c-0.2,0.1-0.5,0.2-0.7,0.2c0,0,0,0-0.1,0c0,0,0,0,0-0.1c0-0.1,0.1-0.1,0.1-0.2c0,0,0-0.1,0.1-0.1c0.3-0.1,0.5-0.3,0.8-0.6
		c0.2-0.2,0.3-0.4,0.4-0.6C10.9,9.7,11,9.5,11,9.4C11,9.4,11.1,9.3,11.1,9.4C11.2,9.4,11.1,9.4,11.1,9.4z"/>
	<path class="st2" d="M5.4,6.5C5,6.5,4.7,6.4,4.4,6.2C4.2,6,4.1,5.7,4,5.5c0,0,0,0,0-0.1c0,0,0,0,0.1,0c0.2,0.1,0.4,0.2,0.7,0.3
		C5,5.8,5.2,6,5.3,6.2C5.4,6.3,5.4,6.3,5.4,6.5c0.1-0.1,0.1,0,0.1,0C5.5,6.5,5.4,6.5,5.4,6.5C5.4,6.5,5.4,6.5,5.4,6.5z"/>
	<path class="st2" d="M11.8,7.9C11.9,8,11.9,8.1,12,8.2c0.1,0.3,0.1,0.7,0.1,1c0,0.1,0,0.1-0.1,0.1c-0.2,0.2-0.5,0.3-0.7,0.5
		c0,0,0,0-0.1,0c0,0,0,0,0-0.1c0,0,0-0.1,0-0.1c0-0.1,0-0.1,0.1-0.2c0.2-0.2,0.3-0.3,0.3-0.6c0-0.2,0.1-0.3,0.1-0.5
		c0-0.1,0-0.3,0-0.4C11.8,8,11.8,7.9,11.8,7.9C11.8,7.9,11.8,7.9,11.8,7.9z"/>
	<path class="st2" d="M8.6,10.7C8.5,10.7,8.5,10.7,8.6,10.7c-0.1-0.3-0.2-0.5-0.3-0.7c0-0.1-0.1-0.2-0.1-0.3c0,0,0-0.1,0-0.1
		c0.1-0.1,0.2-0.1,0.3-0.2c0,0,0.1,0,0.1,0c0.1,0.1,0.1,0.2,0.2,0.2c0.1,0.1,0.2,0.3,0.4,0.4c0.1,0.1,0.1,0.1,0,0.2
		C9,10.5,8.8,10.7,8.6,10.7C8.6,10.7,8.6,10.7,8.6,10.7z"/>
	<path class="st2" d="M2.8,5.8C2.8,5.9,2.8,6,2.8,6C2.9,6.1,3,6.2,3,6.3c0,0,0,0.1,0,0.1c0,0.2,0,0.4,0,0.5c0.1,0.3,0.2,0.6,0.3,0.9
		c0,0.1,0.1,0.1,0,0.2c0,0,0,0.1,0,0.1c0,0,0,0-0.1,0C3.3,8,3.2,7.9,3.1,7.7C3,7.6,2.9,7.4,2.8,7.2C2.7,7.1,2.7,7,2.7,6.9
		c0-0.2,0-0.4,0-0.6C2.7,6.2,2.7,6,2.8,5.8z"/>
	<path class="st2" d="M6.5,10.2C6.5,10.1,6.5,10.1,6.5,10.2C6.8,10,6.9,9.7,7.1,9.5c0,0,0.1-0.1,0.1,0c0.1,0.1,0.2,0.1,0.2,0.2
		c0,0,0,0,0,0.1c-0.1,0.3-0.2,0.6-0.3,0.9c0,0.1,0,0.1-0.1,0.1C6.8,10.6,6.7,10.4,6.5,10.2C6.5,10.2,6.5,10.2,6.5,10.2z"/>
	<path class="st2" d="M10.9,7.5c-0.1,0-0.2,0-0.3,0c0,0-0.1,0,0-0.1c0.1-0.1,0.1-0.2,0.1-0.3c0-0.1,0.2-0.3,0.3-0.3
		c0.3,0,0.6,0,0.8-0.1c0,0,0,0,0.1,0c0,0,0,0,0,0.1c-0.1,0.3-0.3,0.5-0.6,0.6C11.2,7.5,11,7.5,10.9,7.5z"/>
	<path class="st2" d="M4.1,3.2C4,3.3,4,3.4,4,3.5c0,0.1,0,0.1-0.1,0.2c0,0,0,0,0,0c0,0,0,0,0,0c0-0.1,0-0.2,0-0.3
		c0-0.3,0.1-0.5,0.3-0.7c0,0,0-0.1,0.1-0.1c0,0,0,0.1,0.1,0.1c0,0,0,0.1,0,0.2c0,0,0,0,0-0.1c0.1-0.3,0.2-0.5,0.5-0.6
		c0.1,0,0.1,0,0.1,0c0,0.3-0.1,0.6-0.4,0.9c0,0-0.1,0-0.1,0.1c-0.1,0-0.1,0-0.1-0.1c0,0.1-0.1,0.2-0.1,0.3C4.1,3.6,4.1,3.7,4,3.8
		c0,0,0,0,0,0c0,0,0,0,0,0C4,3.6,4,3.5,4,3.4C4.1,3.3,4.1,3.3,4.1,3.2C4.1,3.2,4.1,3.2,4.1,3.2z"/>
	<path class="st2" d="M10.1,6.6C10,6.6,10,6.6,10.1,6.6c0-0.2,0.1-0.3,0.1-0.4c0.1-0.1,0.2-0.2,0.3-0.3c0.2-0.1,0.5-0.2,0.7-0.3
		c0,0,0,0,0,0c0,0,0,0,0,0.1c-0.1,0.5-0.4,0.8-0.9,0.9C10.3,6.6,10.2,6.6,10.1,6.6z"/>
	<path class="st2" d="M12.5,6c0,0.1,0.1,0.2,0.1,0.3c0,0.3,0,0.6,0,0.9c0,0,0,0.1,0,0.1c-0.2,0.3-0.3,0.6-0.5,0.9c0,0,0,0,0,0
		c0,0,0,0,0,0c0,0,0-0.1,0-0.1c0.1-0.3,0.2-0.7,0.2-1c0-0.1,0-0.3,0-0.4c0-0.1,0-0.1,0.1-0.2C12.4,6.3,12.4,6.1,12.5,6z"/>
	<path class="st2" d="M10.7,2.9C10.7,2.9,10.7,2.9,10.7,2.9c0.1,0.2,0.1,0.3,0.2,0.5c0,0,0,0,0,0.1c0,0,0,0-0.1,0
		c-0.2-0.1-0.3-0.3-0.4-0.5c0-0.1-0.1-0.3-0.1-0.4c0,0,0,0,0,0c0-0.1,0-0.1,0.1,0c0.1,0.1,0.2,0.2,0.3,0.3C10.9,2.9,10.9,3,11,3.2
		c0-0.1,0-0.1,0-0.2c0-0.1,0-0.1,0.1,0c0.2,0.2,0.2,0.4,0.3,0.6c0,0.1,0,0.2,0,0.3c0,0,0,0.1,0,0.1c0,0,0,0,0,0
		c0-0.1-0.1-0.3-0.1-0.4c0,0,0,0,0-0.1c0.1,0.2,0.1,0.4,0.2,0.6c0,0,0,0,0,0c-0.1-0.1-0.2-0.2-0.2-0.3C11,3.6,11,3.5,11,3.4
		c0,0,0,0,0,0.1c0,0-0.1-0.1-0.1-0.1C10.8,3.2,10.8,3.1,10.7,2.9C10.7,2.9,10.7,2.9,10.7,2.9C10.7,2.9,10.7,2.9,10.7,2.9
		C10.7,2.9,10.7,2.9,10.7,2.9z"/>
	<path class="st2" d="M6,10.5c0.1,0.1,0.1,0.1,0.2,0.2c0.2,0.2,0.4,0.4,0.7,0.5c0.1,0,0.2,0.1,0.2,0.1c0.1,0,0.1,0,0.1,0.1
		c0,0.1,0,0.2,0,0.3c0,0.1,0,0.1-0.1,0.1c-0.1,0-0.2,0-0.2-0.1c-0.4-0.3-0.8-0.6-0.9-1.1C6,10.6,6,10.6,6,10.5z"/>
	<path class="st2" d="M9.7,10.5c-0.1,0.3-0.2,0.6-0.3,0.8c-0.2,0.2-0.4,0.4-0.6,0.5c-0.1,0-0.1,0-0.2,0c0,0,0,0-0.1-0.1
		c0-0.1,0-0.2,0-0.4c0-0.1,0-0.1,0.1-0.1c0.1,0,0.2-0.1,0.4-0.1c0.2-0.1,0.4-0.2,0.5-0.4C9.5,10.7,9.6,10.6,9.7,10.5
		C9.7,10.5,9.7,10.5,9.7,10.5z"/>
	<path class="st2" d="M4.9,8C4.7,8,4.6,8,4.4,7.9C4.2,7.8,4.1,7.7,4,7.5c0,0,0,0,0-0.1c0,0,0,0,0.1,0c0.2,0.1,0.4,0.1,0.6,0.1
		c0.1,0,0.2,0,0.3,0c0.1,0,0.1,0,0.2,0c0.1,0.1,0.1,0.1,0.2,0.2c0,0,0,0.1,0,0.1c0,0.1,0,0.1,0,0.1C5.2,8,5,8,4.9,8z"/>
	<path class="st2" d="M5.5,7.1C5.2,7.1,5,7,4.8,6.8C4.7,6.7,4.6,6.6,4.5,6.5c0,0,0-0.1,0-0.1c0,0,0,0,0-0.1c0,0,0,0,0.1,0
		c0.1,0,0.2,0.1,0.2,0.1C5,6.5,5.2,6.6,5.5,6.5c0.1,0,0.1,0,0.1,0.1C5.6,6.7,5.7,6.9,5.7,7c0,0.1,0,0.1-0.1,0.1
		C5.6,7.1,5.6,7.1,5.5,7.1z"/>
	<path class="st2" d="M10.6,8.1c-0.1,0-0.2,0-0.4-0.1c0,0-0.1,0,0-0.1c0.1-0.1,0.1-0.1,0.1-0.2c0-0.1,0.2-0.2,0.3-0.2
		c0.3,0,0.5,0,0.7-0.1c0,0,0,0,0.1,0c0,0,0,0,0.1,0c0,0,0,0,0,0.1c-0.1,0.3-0.3,0.4-0.6,0.5C10.8,8.1,10.7,8.1,10.6,8.1z"/>
	<path class="st2" d="M2.8,10.8c0,0.1,0,0.1,0,0.2c0,0,0,0,0,0c0,0,0,0,0,0c0-0.1-0.1-0.2-0.2-0.3c0-0.1-0.1-0.1-0.1-0.2
		c-0.1-0.3-0.2-0.6-0.3-0.9c0,0,0-0.1,0-0.1c0.1-0.1,0.2-0.2,0.3-0.3c0,0,0,0,0,0c0,0,0,0,0,0.1c0,0.4,0,0.8,0.1,1.2
		C2.7,10.5,2.7,10.6,2.8,10.8C2.8,10.7,2.8,10.8,2.8,10.8z"/>
	<path class="st2" d="M5.2,8.5c-0.3,0-0.5-0.1-0.7-0.3c0,0,0-0.1-0.1-0.1c0,0,0,0,0,0c0,0,0,0,0,0c0.1,0,0.2,0.1,0.3,0.1
		c0.2,0,0.4,0,0.6-0.1c0.1,0,0.3,0,0.3,0.1c0,0.1,0,0.1,0.1,0.2c0,0,0,0.1,0,0.1C5.6,8.5,5.4,8.5,5.2,8.5z"/>
	<path class="st2" d="M10,7.2c-0.1,0-0.1,0-0.2,0c0,0,0,0,0,0c0-0.1,0-0.1,0.1-0.1c0,0,0,0,0,0c0-0.1,0-0.2,0.1-0.3c0,0,0,0,0.1,0
		c0.3,0,0.6,0,0.8-0.2c0,0,0,0,0.1,0c0,0,0,0.1,0,0.1c0,0.1-0.1,0.3-0.2,0.4C10.5,7.1,10.3,7.2,10,7.2z"/>
	<path class="st2" d="M6.4,9.2C6.1,9.2,5.9,9.2,5.7,9c0,0,0,0,0,0c0,0,0,0,0.1,0c0.2,0,0.4-0.1,0.6-0.2c0,0,0.1-0.1,0.1-0.1
		c0-0.1,0.1-0.1,0.2-0.1c0.1,0,0.1,0,0.2,0c0,0,0.1,0,0.1,0c0,0.1,0,0.2,0.1,0.4c0,0,0,0.1,0,0.1C6.7,9.2,6.5,9.2,6.4,9.2z"/>
	<path class="st2" d="M5.7,7.7c-0.3,0-0.4-0.1-0.6-0.2C5,7.4,5,7.2,4.9,7.1C4.9,7,4.9,7,5,7c0.1,0,0.2,0.1,0.3,0.1
		c0.1,0,0.2,0,0.3,0c0.1,0,0.1,0,0.2,0.1C5.9,7.3,6,7.4,6.1,7.5c0,0,0,0.1,0,0.1C5.9,7.6,5.8,7.7,5.7,7.7z"/>
	<path class="st2" d="M9.3,9.3c-0.1,0-0.2,0-0.3-0.1c-0.1,0-0.1-0.1-0.2-0.1c0,0,0-0.1,0-0.1c0-0.1,0-0.2,0-0.3c0,0,0-0.1,0.1-0.1
		c0.1,0,0.1,0,0.2,0c0,0,0.1,0,0.1,0.1C9.3,8.9,9.5,9,9.7,9c0.1,0,0.1,0,0.2,0c0,0,0,0,0,0c0,0,0,0,0,0C9.7,9.2,9.5,9.3,9.3,9.3z"/>
	<path class="st2" d="M9.9,7.7c-0.1,0-0.3,0-0.4-0.1c0,0,0,0,0-0.1c0.1-0.1,0.2-0.2,0.3-0.4c0,0,0.1,0,0.1,0c0.2,0.1,0.4,0,0.6-0.1
		c0,0,0.1,0,0.1,0c0.1,0,0.1,0,0.1,0.1c0,0.2-0.2,0.4-0.4,0.5C10.1,7.7,10,7.7,9.9,7.7z"/>
	<path class="st2" d="M10.3,8.6c-0.1,0-0.3,0-0.4-0.1c-0.1,0-0.1-0.1,0-0.1c0,0,0-0.1,0.1-0.1c0-0.1,0.2-0.2,0.3-0.1
		c0.2,0.1,0.4,0.1,0.6,0.1c0.1,0,0.1,0,0.2-0.1c0,0,0,0,0,0c0,0,0,0,0,0c-0.1,0.2-0.2,0.3-0.4,0.4C10.6,8.5,10.4,8.6,10.3,8.6z"/>
	<path class="st2" d="M13.2,9.6c0,0.4-0.1,0.9-0.4,1.3c0,0,0,0.1,0,0c0,0,0,0,0-0.1c0-0.1,0-0.3,0.1-0.4c0-0.4,0-0.8,0-1.2
		c0,0,0,0,0,0c0,0,0,0,0-0.1c0,0,0,0,0.1,0c0.1,0.1,0.2,0.1,0.2,0.2C13.2,9.5,13.2,9.5,13.2,9.6z"/>
	<path class="st2" d="M6.4,8.5C6.2,8.5,6,8.5,5.9,8.3c0,0-0.1-0.1-0.1-0.1c0,0,0,0,0-0.1c0,0,0,0,0.1,0c0.2,0,0.3,0,0.5,0
		c0.1,0,0.2,0,0.3-0.1c0.1,0,0.2,0,0.2,0.1c0,0,0,0,0,0.1c0,0.1,0,0.2,0,0.3c0,0.1,0,0.1-0.1,0.1C6.6,8.5,6.5,8.5,6.4,8.5z"/>
	<path class="st2" d="M5.2,8.6c0.2,0,0.4,0,0.5-0.2c0,0,0.1,0,0.1,0C6,8.5,6.2,8.6,6.3,8.6c0,0,0,0,0,0c0,0,0,0,0,0.1
		C6.2,8.8,6.1,8.9,5.9,8.9c-0.2,0-0.4,0-0.6-0.1c-0.1,0-0.1-0.1-0.2-0.2c0,0,0,0,0,0C5.2,8.6,5.2,8.6,5.2,8.6z"/>
	<path class="st2" d="M9.8,8.2c0,0.1-0.1,0.2-0.2,0.3C9.4,8.6,9.1,8.6,8.8,8.5c0,0-0.1,0-0.1-0.1c0-0.1,0-0.2,0-0.3
		c0-0.1,0.1-0.1,0.2-0.1c0.1,0.1,0.3,0.1,0.4,0.1c0.1,0,0.3,0,0.4,0C9.8,8.2,9.8,8.2,9.8,8.2L9.8,8.2z"/>
	<path class="st2" d="M9.9,8.9c-0.2,0-0.3,0-0.5-0.1c0,0-0.1,0-0.1-0.1c0,0-0.1-0.1-0.1-0.1c0,0,0.1,0,0.1,0c0.1,0,0.3-0.1,0.4-0.2
		c0,0,0.1-0.1,0.1,0c0.2,0.1,0.3,0.1,0.5,0.1c0,0,0,0,0,0c0,0,0.1,0,0.1,0c0,0,0,0.1-0.1,0.1C10.3,8.9,10.1,9,9.9,8.9z"/>
	<path class="st2" d="M8.1,11.7c0,0.1,0,0.2,0,0.3c0,0,0,0.1-0.1,0.1c-0.1,0-0.3,0-0.4,0c0,0-0.1,0,0,0c0-0.2,0-0.4,0-0.5
		c0,0,0,0,0,0c0.2,0,0.3,0,0.5,0c0,0,0,0,0,0C8.1,11.5,8.1,11.6,8.1,11.7C8.1,11.7,8.1,11.7,8.1,11.7z"/>
	<path class="st2" d="M6.1,8.1c-0.1,0-0.2,0-0.4,0C5.6,8,5.5,7.9,5.4,7.7c0,0,0,0,0-0.1c0,0,0,0,0.1,0c0.2,0,0.4,0.1,0.6,0
		c0,0,0,0,0,0c0.1-0.1,0.2,0,0.3,0c0.1,0.1,0.1,0.1,0.2,0.2c0.1,0,0.1,0.1,0,0.1C6.4,8,6.3,8.1,6.1,8.1z"/>
	<path class="st2" d="M9.5,8.1c-0.1,0-0.3,0-0.4-0.1C9,8,9,8,9.1,8c0.1-0.1,0.2-0.1,0.3-0.2c0,0,0.1,0,0.1,0c0.2,0.1,0.5,0.1,0.7,0
		c0,0,0,0,0,0c0,0,0,0,0,0c0,0,0,0,0,0C10.2,7.9,10.1,8,10,8C9.8,8.1,9.7,8.1,9.5,8.1z"/>
	<path class="st2" d="M4.9,3.1c0.1,0,0.3,0,0.4,0.1c0.1,0,0.1,0,0,0.1C5,3.5,4.7,3.5,4.3,3.4c0,0-0.1,0-0.1,0c0,0,0-0.1,0.1-0.1
		C4.5,3.2,4.7,3.1,4.9,3.1z"/>
	<path class="st2" d="M4.7,3.5c0.1,0,0.1,0,0.2,0c0.1,0,0.1,0,0,0.1c0,0-0.1,0.1-0.1,0.1C4.6,3.9,4.4,4,4.1,3.9c0,0,0,0,0,0
		C4,3.9,4,3.9,4,3.8c0.1-0.2,0.3-0.2,0.5-0.3C4.6,3.5,4.6,3.5,4.7,3.5z"/>
	<path class="st2" d="M4.8,3C4.7,3,4.7,3,4.8,3c0-0.1,0-0.2,0.1-0.3C5,2.6,5.2,2.4,5.4,2.4c0,0,0,0,0,0c0.1,0,0.1,0,0.1,0.1
		C5.4,2.8,5.2,3,4.8,3C4.8,3.1,4.7,3.1,4.8,3C4.8,3,4.8,3,4.8,3c0.1-0.1,0.1-0.1,0.1-0.1C5,2.8,5.1,2.8,5.2,2.7
		C5.1,2.7,5.1,2.8,5,2.8c0,0-0.1,0.1-0.1,0.1C4.9,2.9,4.9,2.9,4.8,3C4.8,3,4.8,3,4.8,3z"/>
	<path class="st2" d="M10.9,3.6C11,3.6,11,3.6,10.9,3.6C11,3.7,11,3.7,10.9,3.6c-0.1,0.1-0.2,0.1-0.3,0.1c-0.2,0-0.4-0.1-0.5-0.2
		c-0.1-0.1-0.1-0.1,0-0.1c0.2-0.1,0.4-0.1,0.6,0C10.8,3.4,10.9,3.5,10.9,3.6C11,3.6,11,3.6,10.9,3.6z"/>
	<path class="st2" d="M11.1,4.2c-0.2,0-0.5-0.1-0.7-0.3c0,0,0,0,0,0c0-0.1,0-0.1,0-0.1c0.2,0,0.4,0,0.5,0.1c0.1,0,0.2,0.1,0.3,0.2
		c0,0,0.1,0.1,0,0.1c0,0-0.1,0-0.1,0C11.2,4.2,11.2,4.2,11.1,4.2z M11.3,4.1C11.3,4.1,11.3,4.1,11.3,4.1C11.1,4,11,4,10.8,3.9
		c0,0,0,0,0,0C11,4,11.1,4.1,11.3,4.1z"/>
	<path class="st2" d="M10.1,2.9c0.1,0.1,0.2,0.2,0.4,0.3c0,0,0,0,0,0c0,0,0,0-0.1,0c-0.1,0-0.2-0.1-0.3-0.1C10,3.1,9.9,2.9,9.8,2.8
		c0,0,0-0.1-0.1-0.1c0-0.1,0-0.1,0.1-0.1c0,0,0.1,0,0.1,0c0.2,0.1,0.4,0.3,0.6,0.5c0,0,0,0,0,0c0,0,0,0.1,0,0.1c0,0,0,0-0.1,0
		C10.4,3.1,10.3,3,10.1,2.9C10.2,2.9,10.2,2.9,10.1,2.9C10.1,2.9,10.1,2.9,10.1,2.9z"/>
	<path class="st2" d="M3.8,3.7c0,0.1,0,0.3-0.1,0.4c0,0,0,0,0,0c0,0,0,0-0.1,0c-0.1-0.3-0.2-0.6,0-0.9c0,0,0,0,0,0c0,0,0,0,0,0
		C3.7,3.4,3.8,3.6,3.8,3.7z M3.6,3.7C3.6,3.7,3.6,3.7,3.6,3.7c0,0.2,0,0.3,0,0.5C3.6,4,3.6,3.9,3.6,3.7z"/>
	<path class="st2" d="M11.8,3.9c0,0.1,0,0.3-0.1,0.5c0,0,0,0,0,0c0,0,0,0,0-0.1c-0.1-0.2-0.1-0.3-0.1-0.5c0-0.2,0.1-0.3,0.1-0.4
		c0,0,0,0,0.1,0C11.7,3.6,11.8,3.7,11.8,3.9z"/>
	<path class="st2" d="M3.7,4.3C3.9,4.2,4,4.2,4.2,4.2C4,4.2,3.9,4.2,3.7,4.3C3.7,4.2,3.8,4.2,3.7,4.3C4,4,4.3,3.9,4.6,4
		c0.1,0,0.1,0,0,0.1C4.6,4.2,4.5,4.2,4.4,4.3C4.2,4.3,4,4.4,3.9,4.3C3.8,4.3,3.8,4.3,3.7,4.3z"/>
	<path class="st2" d="M11.6,4.5c-0.1,0-0.3-0.1-0.4-0.1c0.1,0,0.1,0,0.2,0C11.4,4.4,11.4,4.5,11.6,4.5C11.5,4.5,11.5,4.5,11.6,4.5
		C11.5,4.5,11.5,4.5,11.6,4.5c-0.1,0.1-0.2,0.1-0.3,0.1c-0.2,0-0.4-0.1-0.6-0.2c0,0,0,0,0,0c0,0-0.1,0-0.1-0.1c0,0,0.1,0,0.1,0
		C11,4.2,11.3,4.2,11.6,4.5C11.5,4.4,11.5,4.4,11.6,4.5z"/>
	<path class="st2" d="M8.2,11.7C8.2,11.7,8.2,11.7,8.2,11.7c0-0.2,0-0.3,0.2-0.3c0,0,0,0,0,0c0,0.2,0,0.4,0,0.6c0,0,0,0.1,0,0
		c-0.1,0-0.1-0.1-0.2-0.1c0,0,0,0,0-0.1C8.2,11.8,8.2,11.7,8.2,11.7C8.2,11.7,8.2,11.7,8.2,11.7z"/>
	<path class="st2" d="M7.3,11.3c0.1,0,0.2,0.1,0.2,0.1c0,0,0,0,0,0.1c0,0.1,0,0.2,0,0.3c0,0.1,0,0.2-0.1,0.2c0,0,0,0-0.1,0
		c0,0,0,0-0.1,0c0,0,0,0,0-0.1C7.3,11.8,7.3,11.6,7.3,11.3C7.3,11.4,7.3,11.3,7.3,11.3z"/>
	<path class="st2" d="M11.1,9.2C11.1,9.2,11.1,9.3,11.1,9.2c0,0.1,0,0.1,0,0.1C11.1,9.3,11.1,9.3,11.1,9.2
		C11.1,9.2,11.1,9.2,11.1,9.2z"/>
	<polygon class="st2" points="9.8,8.2 9.8,8.2 9.8,8.2 9.8,8.2 	"/>
	<path class="st2" d="M3.5,6.7C3.5,6.7,3.5,6.7,3.5,6.7C3.5,6.7,3.5,6.7,3.5,6.7z"/>
	<polygon class="st2" points="10.7,2.9 10.7,2.9 10.7,2.9 	"/>
	<path class="st2" d="M4.9,2.9C4.9,2.9,4.9,2.9,4.9,2.9C4.9,2.9,4.9,2.9,4.9,2.9C4.9,2.9,4.9,2.9,4.9,2.9C4.9,2.9,4.9,2.9,4.9,2.9z"
		/>
</g>
<g>
	<rect x="4.4" y="12.6" class="st3" width="6.8" height="3.1"/>
	<polygon class="st1" points="11.1,12.7 6.4,14 7.5,14 4.5,15.4 4.5,12.7 	"/>
	<polygon class="st4" points="4.5,15.5 9.3,14.1 8.2,14.1 11.1,12.7 11.1,15.4 	"/>
</g>
</svg>
